# xmcd
#
# Track frame offsets:
#	182
#	16270
#	35970
#	54315
#
# Disc length: 1027 seconds
#
# Revision: 0
# Processed by: cddbd v1.5.2PL0 Copyright (c) Steve Scherf et al.
# Submitted via: EasyCDDAExtractor 10.0.3.1
#
DISCID=2c040104
DTITLE=TINA TURNER - SINGLE
DYEAR=1900
DGENRE=
TTITLE0=Something Beautiful Remains - JOE URBAN REMIX EDIT
TTITLE1=Something Beautiful Remains - THE ALBUM VERSION
TTITLE2=Steamy Windows
TTITLE3=Addicted To Love - LIVE
EXTD=
EXTT0=
EXTT1=
EXTT2=
EXTT3=
PLAYORDER=
